<?xml version="1.0" encoding="UTF-8" standalone="no"?>
<!-- Uploaded to: SVG Repo, www.svgrepo.com, Generator: SVG Repo Mixer Tools -->

<svg
   width="800px"
   height="800px"
   viewBox="0 0 24 24"
   id="Layer_1"
   data-name="Layer 1"
   version="1.1"
   sodipodi:docname="smartphonE.svg"
   inkscape:version="1.2.2 (732a01da63, 2022-12-09)"
   xmlns:inkscape="http://www.inkscape.org/namespaces/inkscape"
   xmlns:sodipodi="http://sodipodi.sourceforge.net/DTD/sodipodi-0.dtd"
   xmlns="http://www.w3.org/2000/svg"
   xmlns:svg="http://www.w3.org/2000/svg">
  <sodipodi:namedview
     id="namedview19"
     pagecolor="#ffffff"
     bordercolor="#000000"
     borderopacity="0.25"
     inkscape:showpageshadow="2"
     inkscape:pageopacity="0.0"
     inkscape:pagecheckerboard="0"
     inkscape:deskcolor="#d1d1d1"
     showgrid="false"
     inkscape:zoom="1.005"
     inkscape:cx="400"
     inkscape:cy="444.27861"
     inkscape:window-width="1920"
     inkscape:window-height="991"
     inkscape:window-x="-9"
     inkscape:window-y="-9"
     inkscape:window-maximized="1"
     inkscape:current-layer="Layer_1" />
  <defs
     id="defs4">
    <style
       id="style2">.cls-1{fill:none;stroke:#020202;stroke-miterlimit:10;stroke-width:1.91px;}</style>
  </defs>
  <rect
     class="cls-1"
     x="1.5"
     y="1.5"
     width="11.45"
     height="17.18"
     rx="1.91"
     id="rect6"
     style="stroke:#ffffff;stroke-opacity:1;stroke-width:1.91001;stroke-dasharray:none;stroke-linejoin:round" />
  <line
     class="cls-1"
     x1="6.27"
     y1="15.82"
     x2="8.18"
     y2="15.82"
     id="line8"
     style="stroke:#ffffff;stroke-opacity:1;stroke-width:1.91001;stroke-dasharray:none;stroke-linejoin:round" />
  <path
     class="cls-1"
     d="M7.23,18.68h0a3.82,3.82,0,0,0,3.82,3.82h4.77a3.82,3.82,0,0,0,3.82-3.82V9.14"
     id="path10"
     style="stroke:#ffffff;stroke-opacity:1;stroke-width:1.91001;stroke-dasharray:none;stroke-linejoin:round" />
  <path
     class="cls-1"
     d="M16.77,5.32H22.5a0,0,0,0,1,0,0V7.23a1.91,1.91,0,0,1-1.91,1.91H18.68a1.91,1.91,0,0,1-1.91-1.91V5.32A0,0,0,0,1,16.77,5.32Z"
     id="path12"
     style="stroke:#ffffff;stroke-opacity:1;stroke-width:1.91001;stroke-dasharray:none;stroke-linejoin:round" />
  <rect
     class="cls-1"
     x="17.73"
     y="1.5"
     width="3.82"
     height="3.82"
     id="rect14"
     style="stroke:#ffffff;stroke-opacity:1;stroke-width:1.91001;stroke-dasharray:none;stroke-linejoin:round" />
  <polyline
     class="cls-1"
     points="8.18 5.32 6.27 9.14 8.18 9.14 6.27 12.96"
     id="polyline16"
     style="stroke:#ffffff;stroke-opacity:1;stroke-width:1.91001;stroke-dasharray:none;stroke-linejoin:round" />
</svg>
